<?xml version="1.0" encoding="utf-8"?>
<!-- Generator: Adobe Illustrator 22.1.0, SVG Export Plug-In . SVG Version: 6.00 Build 0)  -->
<svg version="1.1" id="Layer_1" xmlns="http://www.w3.org/2000/svg" xmlns:xlink="http://www.w3.org/1999/xlink" x="0px" y="0px"
	 viewBox="0 0 500 500" style="enable-background:new 0 0 500 500;" xml:space="preserve">
<style type="text/css">
	.st0{fill:#5163BA;}
</style>
<g>
	<path class="st0" d="M427.1,140.2L257.1,92.5c-2.4-0.7-5-0.7-7.4,0c-5.9,1.7-10.1,7.1-10.1,13.3v288.5c0,6.2,4.1,11.6,10.1,13.3
		c2.4,0.7,5,0.7,7.4,0l169.9-47.7c6-1.7,10.2-7.2,10.2-13.5V153.6C437.3,147.4,433.1,141.9,427.1,140.2z M392.7,254.9l-29,13.7
		c-3,1.4-5.3,3.8-6.7,6.7l-13.7,29c-1.9,4.1-7.8,4.1-9.7,0l-13.7-29c-1.4-2.9-3.8-5.3-6.7-6.7l-29-13.7c-4.1-1.9-4.1-7.8,0-9.7
		l29-13.7c3-1.4,5.3-3.8,6.7-6.7l13.7-29c1.9-4.1,7.8-4.1,9.7,0l13.7,29c1.4,2.9,3.8,5.3,6.7,6.7l29,13.7
		C396.9,247.1,396.9,252.9,392.7,254.9z"/>
	<path class="st0" d="M186,108.4l-27.7,7.8c-4.3,1.2-7.2,5.1-7.2,9.5v248.6c0,4.4,2.9,8.3,7.2,9.5l27.7,7.8c4.7,1.3,9.4-2.2,9.4-7.1
		V115.6C195.4,110.7,190.8,107.1,186,108.4z"/>
	<path class="st0" d="M97.6,133.3l-24.6,6.9c-6,1.7-10.2,7.2-10.2,13.5v192.7c0,6.3,4.2,11.8,10.2,13.5l24.6,6.9
		c4.7,1.3,9.4-2.2,9.4-7.1V140.4C106.9,135.5,102.3,131.9,97.6,133.3z"/>
</g>
</svg>
